<svg width="122" height="39" viewBox="0 0 122 39" fill="none" xmlns="http://www.w3.org/2000/svg">
<g id="Airbnb Logo" clip-path="url(#clip0_21_67)">
<path id="Vector" d="M34.7366 27.1656C34.5465 26.7089 34.3683 26.2288 34.1782 25.8189L33.2991 23.8631L33.2635 23.828C30.6499 18.2067 27.858 12.4918 24.8999 6.87054L24.7811 6.63632C24.4841 6.0859 24.1871 5.47693 23.8782 4.91481C23.4981 4.24728 23.1298 3.53291 22.5239 2.85368C21.9333 2.14298 21.19 1.57038 20.3477 1.1772C19.5054 0.784025 18.5851 0.580078 17.6531 0.580078C16.7211 0.580078 15.8008 0.784025 14.9584 1.1772C14.1161 1.57038 13.3729 2.14298 12.7823 2.85368C12.2239 3.53291 11.8081 4.24728 11.4279 4.91481C11.1309 5.52378 10.8339 6.12103 10.5251 6.67145L10.4063 6.90567C7.49565 12.5269 4.65631 18.2419 2.0427 23.8631L1.97142 23.9334C1.71006 24.5424 1.40118 25.1748 1.10418 25.854C0.9141 26.2639 0.724019 26.7089 0.533938 27.2008C0.020759 28.4887 -0.143115 29.8863 0.0584658 31.2557C0.260047 32.6251 0.820126 33.9191 1.6835 35.0101C2.54688 36.1012 3.68376 36.9516 4.98209 37.4776C6.28043 38.0037 7.6954 38.1872 9.08757 38.01C10.4223 37.8368 11.7074 37.3985 12.8654 36.7218C14.4098 35.8669 15.8948 34.6255 17.558 32.8337C19.2213 34.6255 20.7419 35.8669 22.2507 36.7335C23.7016 37.573 25.3447 38.0363 27.0264 38.0802C28.974 38.0882 30.8587 37.4013 32.3326 36.1464C33.8066 34.8915 34.7701 33.1533 35.0455 31.2528C35.3637 29.887 35.256 28.4583 34.7366 27.1539V27.1656ZM17.6768 29.1096C15.6335 26.5332 14.3029 24.1676 13.8515 22.1416C13.6644 21.3909 13.6241 20.6119 13.7327 19.8463C13.8158 19.249 14.0416 18.722 14.3504 18.277C15.0632 17.2582 16.3106 16.6258 17.6768 16.6258C18.3257 16.6062 18.9692 16.7458 19.5498 17.032C20.1304 17.3181 20.6298 17.7419 21.0033 18.2653C21.3121 18.7337 21.5379 19.249 21.6091 19.8463C21.7279 20.5255 21.6804 21.3101 21.4903 22.1416C21.0389 24.1325 19.7083 26.5215 17.6768 29.1096ZM32.812 30.8429C32.677 31.8078 32.2879 32.721 31.6835 33.4915C31.079 34.2621 30.2802 34.863 29.3668 35.2345C28.4639 35.6092 27.466 35.7146 26.4918 35.6092C25.5414 35.4921 24.591 35.1876 23.6169 34.6255C21.9994 33.64 20.545 32.4156 19.3044 30.9951C21.7992 27.9503 23.308 25.1748 23.8782 22.7038C24.1515 21.5327 24.1871 20.4787 24.0683 19.5067C23.92 18.5853 23.5714 17.7065 23.0466 16.9303C22.4474 16.0885 21.6476 15.4048 20.7175 14.9392C19.7873 14.4737 18.7554 14.2405 17.7125 14.2602C15.5147 14.2602 13.5545 15.2673 12.3665 16.9185C11.8317 17.6928 11.486 18.5787 11.3567 19.5067C11.2022 20.4904 11.2379 21.5795 11.5467 22.7038C12.117 25.1748 13.6614 27.9854 16.1206 31.0185C14.901 32.4662 13.4432 33.7014 11.8081 34.6724C10.8221 35.2345 9.88353 35.5273 8.93313 35.6444C7.45512 35.831 5.96211 35.435 4.77863 34.5425C3.59516 33.65 2.81687 32.3331 2.61295 30.878C2.49415 29.9411 2.57731 29.0042 2.95747 27.9503C3.07627 27.5755 3.25447 27.2008 3.44455 26.7557C3.70591 26.1468 4.01479 25.5144 4.31179 24.882L4.35931 24.8C6.9254 19.2139 9.72909 13.5106 12.6397 7.92452L12.7585 7.6903C13.0555 7.12818 13.3525 6.53092 13.6614 5.96879C13.9703 5.37153 14.3029 4.7977 14.7306 4.32926C15.1008 3.89364 15.5634 3.5433 16.0857 3.30293C16.6081 3.06256 17.1776 2.93798 17.7541 2.93798C18.3305 2.93798 18.9 3.06256 19.4224 3.30293C19.9448 3.5433 20.4073 3.89364 20.7775 4.32926C21.1933 4.7977 21.5379 5.37153 21.8467 5.96879C22.1437 6.53092 22.4407 7.13989 22.7496 7.6903L22.8684 7.92452C25.7672 13.5106 28.5708 19.2139 31.1845 24.8L31.2201 24.8351C31.529 25.4441 31.7903 26.1234 32.0873 26.7089C32.2774 27.1656 32.4675 27.5287 32.5863 27.9151C32.812 28.9691 32.9308 29.906 32.812 30.8429ZM49.349 28.852C48.4538 28.8649 47.5672 28.679 46.7548 28.308C45.9425 27.937 45.2253 27.3904 44.6564 26.7089C43.3782 25.2567 42.6998 23.3843 42.7556 21.4624C42.7361 19.4987 43.4364 17.5941 44.7277 16.0988C45.325 15.4086 46.0686 14.8558 46.906 14.4795C47.7435 14.1031 48.6544 13.9123 49.5748 13.9205C50.4407 13.8972 51.2985 14.0913 52.0675 14.4846C52.8364 14.878 53.4912 15.4576 53.9704 16.169L54.0892 14.3304H57.5582V28.4773H54.0773L53.9585 26.4161C53.4645 27.1758 52.7817 27.7983 51.9749 28.2246C51.1682 28.651 50.2643 28.8669 49.349 28.852ZM50.2519 25.4792C50.941 25.4792 51.5469 25.2919 52.1171 24.9523C52.6398 24.5775 53.0675 24.0856 53.4001 23.4884C53.6971 22.8911 53.8516 22.1768 53.8516 21.3804C53.8979 20.6888 53.7613 19.9971 53.4552 19.3731C53.1491 18.749 52.6839 18.214 52.1052 17.8203C51.5492 17.4788 50.9071 17.2977 50.2519 17.2977C49.5968 17.2977 48.9547 17.4788 48.3986 17.8203C47.8759 18.195 47.4482 18.6869 47.1156 19.2842C46.8014 19.9428 46.6469 20.6645 46.6642 21.3921C46.6178 22.0838 46.7544 22.7754 47.0605 23.3995C47.3666 24.0235 47.8318 24.5585 48.4105 24.9523C48.9689 25.2919 49.5748 25.4792 50.2519 25.4792ZM63.4982 10.5126C63.4982 10.9225 63.4269 11.2973 63.2368 11.6018C63.0467 11.8945 62.7854 12.1639 62.4409 12.3513C62.0963 12.5386 61.7281 12.6089 61.3479 12.6089C60.9677 12.6089 60.5876 12.5386 60.243 12.3513C59.9172 12.1725 59.6432 11.9144 59.4471 11.6018C59.2631 11.2682 59.1729 10.8922 59.1857 10.5126C59.1857 10.0911 59.2689 9.7163 59.4471 9.42353C59.6372 9.0722 59.9104 8.8614 60.243 8.67402C60.5876 8.48665 60.9559 8.40467 61.3479 8.40467C61.726 8.39608 62.1 8.48437 62.4332 8.6609C62.7663 8.83743 63.0473 9.09617 63.2487 9.41181C63.4216 9.75324 63.5072 10.1311 63.4982 10.5126ZM59.459 28.4304V14.307H63.2368V28.4538H59.4471L59.459 28.4304ZM73.3349 18.0077V18.0545C73.1567 17.9725 72.9191 17.9374 72.7409 17.9023C72.5033 17.8554 72.3132 17.8554 72.0875 17.8554C71.0301 17.8554 70.2342 18.1599 69.7114 18.7923C69.1412 19.4364 68.8798 20.3381 68.8798 21.4975V28.4421H65.0901V14.2953H68.571L68.6898 16.4384C69.0699 15.6889 69.5214 15.1268 70.1629 14.7052C70.801 14.2955 71.5522 14.091 72.3132 14.1196C72.5864 14.1196 72.8478 14.143 73.0735 14.1899C73.1923 14.225 73.2636 14.225 73.3349 14.2602V18.0077ZM74.8555 28.4304V8.49836H78.6334V16.1105C79.168 15.4312 79.7738 14.9043 80.5342 14.4944C81.7378 13.9126 83.1053 13.7476 84.4158 14.0259C85.7262 14.3043 86.9034 15.0097 87.7572 16.0285C89.0383 17.4837 89.7169 19.3609 89.6581 21.2867C89.6776 23.2504 88.9773 25.155 87.686 26.6503C87.0886 27.3406 86.3451 27.8933 85.5076 28.2697C84.6702 28.646 83.7592 28.8368 82.8389 28.8286C81.9729 28.8519 81.1151 28.6578 80.3462 28.2645C79.5773 27.8712 78.9224 27.2915 78.4433 26.5801L78.3245 28.4187L74.8555 28.4538V28.4304ZM82.1617 25.4792C82.8389 25.4792 83.4448 25.2919 84.015 24.9523C84.5378 24.5775 84.9654 24.0856 85.2981 23.4884C85.607 22.8911 85.7495 22.1768 85.7495 21.3804C85.7495 20.5958 85.607 19.8814 85.2981 19.2842C84.9861 18.7082 84.5478 18.2082 84.015 17.8203C83.459 17.4788 82.8169 17.2977 82.1617 17.2977C81.5066 17.2977 80.8645 17.4788 80.3084 17.8203C79.7738 18.195 79.358 18.6869 79.0135 19.2842C78.6994 19.9428 78.5448 20.6645 78.5621 21.3921C78.5158 22.0838 78.6524 22.7754 78.9585 23.3995C79.2646 24.0235 79.7297 24.5585 80.3084 24.9523C80.8668 25.2919 81.4727 25.4792 82.1617 25.4792ZM91.0836 28.4421V14.2953H94.5645L94.6833 16.1339C95.1207 15.4291 95.7412 14.8523 96.4806 14.4632C97.22 14.0741 98.0514 13.8867 98.8888 13.9205C99.8465 13.9042 100.788 14.1666 101.595 14.6748C102.402 15.1831 103.039 15.9146 103.427 16.778C103.843 17.668 104.069 18.7689 104.069 19.9985V28.4773H100.279V20.4904C100.279 19.5067 100.053 18.7337 99.6016 18.1599C99.1502 17.5978 98.5324 17.2933 97.7484 17.2933C97.1781 17.2933 96.6792 17.4104 96.2396 17.668C95.8238 17.9374 95.4793 18.277 95.2179 18.7572C94.9537 19.2425 94.8226 19.7875 94.8378 20.3381V28.4421H91.0836ZM105.957 28.4421V8.48665H109.747V16.0988C110.261 15.4157 110.928 14.8601 111.697 14.4759C112.467 14.0917 113.316 13.8895 114.178 13.8854C115.074 13.8725 115.96 14.0584 116.773 14.4294C117.585 14.8004 118.302 15.347 118.871 16.0285C120.143 17.4836 120.817 19.3551 120.76 21.275C120.781 23.2389 120.08 25.1439 118.788 26.6386C118.191 27.3289 117.447 27.8816 116.61 28.2579C115.772 28.6343 114.861 28.8251 113.941 28.8169C113.075 28.8402 112.217 28.6461 111.448 28.2528C110.679 27.8595 110.024 27.2798 109.545 26.5684L109.438 28.407L105.957 28.4421ZM113.299 25.4792C113.988 25.4792 114.594 25.2919 115.153 24.9523C115.687 24.5775 116.103 24.0856 116.448 23.4884C116.745 22.8911 116.899 22.1768 116.899 21.3804C116.945 20.6888 116.809 19.9971 116.503 19.3731C116.197 18.749 115.731 18.214 115.153 17.8203C114.597 17.4788 113.955 17.2977 113.299 17.2977C112.644 17.2977 112.002 17.4788 111.446 17.8203C110.923 18.195 110.496 18.6869 110.163 19.2842C109.831 19.9369 109.676 20.6629 109.712 21.3921C109.665 22.0838 109.802 22.7754 110.108 23.3995C110.414 24.0235 110.879 24.5585 111.458 24.9523C112.016 25.2919 112.587 25.4792 113.299 25.4792Z" fill="#FF385C"/>
</g>
<defs>
<clipPath id="clip0_21_67">
<rect width="121.176" height="37.4751" fill="white" transform="translate(0 0.606445)"/>
</clipPath>
</defs>
</svg>
