<svg width="122" height="39" viewBox="0 0 122 39" fill="none" xmlns="http://www.w3.org/2000/svg">
<g id="Amazon Logo" clip-path="url(#clip0_21_71)">
<path id="path8" fill-rule="evenodd" clip-rule="evenodd" d="M75.1755 29.9128C68.1338 35.2393 57.9271 38.0812 49.1394 38.0812C36.8177 38.0812 25.7249 33.4043 17.3328 25.6256C16.6735 25.0139 17.2642 24.1803 18.0555 24.6566C27.1122 30.0643 38.3104 33.3176 49.8779 33.3176C57.6792 33.3176 66.2612 31.6612 74.1522 28.2239C75.3443 27.7042 76.3412 29.025 75.1755 29.9128Z" fill="#FF9900"/>
<path id="path10" fill-rule="evenodd" clip-rule="evenodd" d="M78.1032 26.4754C77.2065 25.2954 72.1533 25.9179 69.8852 26.1939C69.1942 26.2806 69.0887 25.6635 69.7111 25.2196C73.7357 22.3127 80.3397 23.1518 81.1098 24.1261C81.8799 25.1059 80.9093 31.8994 77.1274 35.1418C76.5471 35.6398 75.9933 35.3746 76.2518 34.7142C77.101 32.5381 79.0052 27.6609 78.1032 26.4754Z" fill="#FF9900"/>
<path id="path12" fill-rule="evenodd" clip-rule="evenodd" d="M70.0433 4.69838V1.87273C70.0433 1.4451 70.3598 1.1582 70.7396 1.1582H83.0667C83.4623 1.1582 83.7787 1.45051 83.7787 1.87273V4.2924C83.7735 4.69838 83.4412 5.22887 82.8504 6.0679L76.4627 15.4272C78.8363 15.3677 81.3418 15.7303 83.4939 16.9753C83.9792 17.2568 84.1111 17.6682 84.148 18.0742V21.0893C84.148 21.5007 83.7049 21.9825 83.2407 21.7335C79.4482 19.6927 74.4108 19.4708 70.2174 21.7551C69.7901 21.9933 69.3418 21.517 69.3418 21.1056V18.242C69.3418 17.7819 69.3471 16.997 69.7954 16.2987L77.1959 5.4075H70.7554C70.3598 5.4075 70.0433 5.12061 70.0433 4.69838Z" fill="black"/>
<path id="path14" fill-rule="evenodd" clip-rule="evenodd" d="M25.076 22.3293H21.3257C20.967 22.3022 20.6821 22.0262 20.6558 21.6743V1.92183C20.6558 1.52667 20.9775 1.21271 21.3784 1.21271H24.8755C25.2395 1.22894 25.5296 1.51584 25.556 1.87311V4.45517H25.6246C26.5371 1.95972 28.2514 0.795898 30.5617 0.795898C32.909 0.795898 34.3753 1.95972 35.4303 4.45517C36.3375 1.95972 38.4 0.795898 40.6101 0.795898C42.1819 0.795898 43.9015 1.46171 44.9512 2.95573C46.138 4.61756 45.8954 7.03181 45.8954 9.14834L45.8901 21.6148C45.8901 22.0099 45.5683 22.3293 45.1674 22.3293H41.4224C41.0479 22.3022 40.7472 21.9937 40.7472 21.6148V11.1458C40.7472 10.3122 40.8211 8.23353 40.6417 7.44321C40.3622 6.117 39.5235 5.74349 38.4369 5.74349C37.5296 5.74349 36.5802 6.366 36.1951 7.36201C35.8101 8.35803 35.847 10.0253 35.847 11.1458V21.6148C35.847 22.0099 35.5252 22.3293 35.1244 22.3293H31.3793C30.9995 22.3022 30.7041 21.9937 30.7041 21.6148L30.6989 11.1458C30.6989 8.94264 31.0523 5.70018 28.3885 5.70018C25.6931 5.70018 25.7986 8.86144 25.7986 11.1458V21.6148C25.7986 22.0099 25.4769 22.3293 25.076 22.3293" fill="black"/>
<path id="path16" fill-rule="evenodd" clip-rule="evenodd" d="M94.3913 0.795898C99.9561 0.795898 102.968 5.70019 102.968 11.9361C102.968 17.9609 99.6396 22.7407 94.3913 22.7407C88.9266 22.7407 85.9517 17.8364 85.9517 11.725C85.9517 5.57568 88.9635 0.795898 94.3913 0.795898ZM94.4229 4.82868C91.6589 4.82868 91.4849 8.69364 91.4849 11.1025C91.4849 13.5167 91.4479 18.67 94.3913 18.67C97.2976 18.67 97.4348 14.5128 97.4348 11.9794C97.4348 10.3122 97.3662 8.32014 96.8757 6.7395C96.4537 5.36458 95.615 4.82868 94.4229 4.82868Z" fill="black"/>
<path id="path18" fill-rule="evenodd" clip-rule="evenodd" d="M110.184 22.3293H106.449C106.075 22.3022 105.774 21.9937 105.774 21.6148L105.769 1.85687C105.801 1.49419 106.112 1.21271 106.492 1.21271H109.968C110.295 1.22894 110.564 1.4563 110.638 1.76485V4.78537H110.706C111.756 2.08422 113.228 0.795898 115.817 0.795898C117.5 0.795898 119.14 1.41841 120.195 3.12354C121.177 4.70417 121.177 7.36201 121.177 9.27284V21.7068C121.134 22.0532 120.823 22.3293 120.454 22.3293H116.693C116.35 22.3022 116.065 22.0424 116.028 21.7068V10.978C116.028 8.81814 116.271 5.65688 113.681 5.65688C112.769 5.65688 111.93 6.2848 111.513 7.23751C110.986 8.44464 110.917 9.64635 110.917 10.978V21.6148C110.912 22.0099 110.585 22.3293 110.184 22.3293" fill="black"/>
<path id="path28" fill-rule="evenodd" clip-rule="evenodd" d="M60.2163 12.8942C60.2163 14.3937 60.2533 15.6441 59.5148 16.9757C58.9188 18.0584 57.9693 18.7242 56.9196 18.7242C55.4796 18.7242 54.6357 17.5982 54.6357 15.9364C54.6357 12.6561 57.4999 12.0606 60.2163 12.0606V12.8942ZM63.9983 22.2752C63.7504 22.5025 63.3917 22.5188 63.1122 22.3672C61.8673 21.3062 61.6405 20.8136 60.9601 19.8014C58.9029 21.9558 57.4418 22.6 54.7781 22.6C51.6185 22.6 49.1658 20.6025 49.1658 16.6022C49.1658 13.4789 50.8115 11.3515 53.164 10.3122C55.2001 9.39194 58.0431 9.22955 60.2163 8.97514V8.47713C60.2163 7.56231 60.2849 6.47968 59.7574 5.68937C59.3038 4.98025 58.4282 4.68794 57.6528 4.68794C56.2234 4.68794 54.9522 5.44036 54.6409 6.99934C54.5777 7.34579 54.3297 7.68681 53.9869 7.70305L50.3526 7.30248C50.0466 7.23211 49.7038 6.97769 49.7935 6.49593C50.6269 1.97056 54.6146 0.606445 58.1803 0.606445C60.0054 0.606445 62.3895 1.10445 63.8295 2.52269C65.6546 4.27113 65.4805 6.60419 65.4805 9.14294V15.1407C65.4805 16.9433 66.2084 17.7336 66.8942 18.7079C67.1315 19.0544 67.1843 19.4712 66.8783 19.731C66.1135 20.386 64.7526 21.604 64.0036 22.286L63.9983 22.2752" fill="black"/>
<path id="path30" fill-rule="evenodd" clip-rule="evenodd" d="M11.0506 12.8942C11.0506 14.3937 11.0875 15.6441 10.349 16.9757C9.75298 18.0583 8.8088 18.7242 7.75386 18.7242C6.31385 18.7242 5.47517 17.5982 5.47517 15.9364C5.47517 12.6561 8.33935 12.0606 11.0506 12.0606V12.8942ZM14.8325 22.2752C14.5846 22.5025 14.226 22.5188 13.9464 22.3672C12.7016 21.3062 12.48 20.8136 11.7943 19.8014C9.73715 21.9558 8.28133 22.6 5.61231 22.6C2.45802 22.6 0 20.6025 0 16.6022C0 13.4788 1.65099 11.3515 3.99825 10.3122C6.03429 9.39194 8.87737 9.22955 11.0506 8.97513V8.47712C11.0506 7.5623 11.1191 6.47968 10.5969 5.68937C10.138 4.98025 9.26243 4.68794 8.49232 4.68794C7.06287 4.68794 5.78638 5.44036 5.47517 6.99934C5.41187 7.34578 5.16396 7.68681 4.82638 7.70305L1.18682 7.30247C0.88088 7.23211 0.543297 6.97769 0.627692 6.49592C1.46638 1.97056 5.4488 0.606445 9.01452 0.606445C10.8396 0.606445 13.2238 1.10445 14.6638 2.52269C16.4888 4.27113 16.3147 6.60418 16.3147 9.14294V15.1407C16.3147 16.9432 17.0427 17.7336 17.7284 18.7079C17.971 19.0544 18.0238 19.4712 17.7178 19.731C16.953 20.386 15.5921 21.6039 14.8431 22.286L14.8326 22.2752" fill="black"/>
</g>
<defs>
<clipPath id="clip0_21_71">
<rect width="121.176" height="37.4751" fill="white" transform="translate(0 0.606445)"/>
</clipPath>
</defs>
</svg>
