<svg width="118" height="36" viewBox="0 0 118 36" fill="none" xmlns="http://www.w3.org/2000/svg">
<g id="FedEx Logo" clip-path="url(#clip0_21_82)">
<g id="g15">
<g id="g17">
<path id="polygon19" d="M87.6633 34.8589L97.4746 24.042L87.6633 13.2236H98.0152L102.875 18.4785L107.554 13.2236H117.545L107.78 23.9974L117.679 34.8589H107.284L102.469 29.5609L97.6991 34.8589H87.6633Z" fill="#FF6600"/>
<path id="polygon21" d="M87.6633 8.37357H76.5513V13.2234H87.6633V20.5326H76.5513V27.2414H87.6633V34.8587H68.384V0.777344H87.6633V8.37357Z" fill="#FF6600"/>
</g>
<path id="path23" d="M60.2512 0.777344V14.7251H60.1617C58.3612 12.6944 56.1116 11.9887 53.5013 11.9887C48.1545 11.9887 44.1269 15.5552 42.7131 20.2706C41.1008 15.0749 36.9428 11.8914 30.777 11.8914C25.7699 11.8914 21.8159 14.0967 19.7525 17.6903V13.2239H9.4026V8.37458H20.6972V0.777344H0.176514V34.8592H9.4026V20.5326H18.5985C18.3243 21.585 18.1781 22.7118 18.1781 23.9008C18.1781 31.0102 23.7131 35.9986 30.777 35.9986C36.7172 35.9986 40.6318 33.2622 42.7024 28.2733H34.796C33.7264 29.772 32.9151 30.2172 30.777 30.2172C28.2978 30.2172 26.1602 28.0947 26.1602 25.5786H42.2594C42.9576 31.2255 47.4405 36.0954 53.5924 36.0954C56.2461 36.0954 58.6758 34.8146 60.1617 32.6519H60.2512V34.8582H68.3842V0.777344H60.2512ZM26.4169 20.6344C26.93 18.4698 28.641 17.0549 30.777 17.0549C33.1284 17.0549 34.7525 18.4261 35.1796 20.6344C35.3596 20.6344 26.4169 20.6344 26.4169 20.6344ZM55.3157 29.6696C52.3177 29.6696 50.4548 26.9288 50.4548 24.0669C50.4548 21.0079 52.0752 18.0662 55.3157 18.0662C58.6758 18.0662 60.0144 21.0079 60.0144 24.0669C60.0139 26.9679 58.5955 29.6696 55.3157 29.6696Z" fill="#652C8F"/>
</g>
</g>
<defs>
<clipPath id="clip0_21_82">
<rect width="117.647" height="35.1329" fill="white" transform="translate(0.176514 0.777344)"/>
</clipPath>
</defs>
</svg>
