<svg width="113" height="39" viewBox="0 0 113 39" fill="none" xmlns="http://www.w3.org/2000/svg">
<g id="Google Logo" clip-path="url(#clip0_21_98)">
<path id="Vector" d="M48.2675 19.8248C48.2675 25.0265 44.1626 28.8595 39.1249 28.8595C34.0873 28.8595 29.9824 25.0265 29.9824 19.8248C29.9824 14.5864 34.0873 10.79 39.1249 10.79C44.1626 10.79 48.2675 14.5864 48.2675 19.8248ZM44.2653 19.8248C44.2653 16.5742 41.8862 14.3502 39.1249 14.3502C36.3637 14.3502 33.9846 16.5742 33.9846 19.8248C33.9846 23.0428 36.3637 25.2994 39.1249 25.2994C41.8862 25.2994 44.2653 23.0387 44.2653 19.8248Z" fill="#EA4335"/>
<path id="Vector_2" d="M67.9906 19.8248C67.9906 25.0265 63.8857 28.8595 58.8481 28.8595C53.8105 28.8595 49.7056 25.0265 49.7056 19.8248C49.7056 14.5905 53.8105 10.79 58.8481 10.79C63.8857 10.79 67.9906 14.5864 67.9906 19.8248ZM63.9884 19.8248C63.9884 16.5742 61.6093 14.3502 58.8481 14.3502C56.0868 14.3502 53.7077 16.5742 53.7077 19.8248C53.7077 23.0428 56.0868 25.2994 58.8481 25.2994C61.6093 25.2994 63.9884 23.0387 63.9884 19.8248Z" fill="#FBBC05"/>
<path id="Vector_3" d="M86.8919 11.3359V27.5561C86.8919 34.2283 82.9226 36.9533 78.2301 36.9533C73.8129 36.9533 71.1544 34.0246 70.1518 31.6294L73.6362 30.1915C74.2567 31.662 75.777 33.3973 78.226 33.3973C81.2297 33.3973 83.0911 31.5602 83.0911 28.1019V26.8025H82.9514C82.0556 27.8982 80.3298 28.8555 78.152 28.8555C73.5952 28.8555 69.4204 24.9206 69.4204 19.8574C69.4204 14.7575 73.5952 10.79 78.152 10.79C80.3257 10.79 82.0515 11.7473 82.9514 12.8104H83.0911V11.3399H86.8919V11.3359ZM83.3746 19.8574C83.3746 16.6761 81.2338 14.3502 78.5095 14.3502C75.7483 14.3502 73.4349 16.6761 73.4349 19.8574C73.4349 23.0061 75.7483 25.2994 78.5095 25.2994C81.2338 25.2994 83.3746 23.0061 83.3746 19.8574Z" fill="#4285F4"/>
<path id="Vector_4" d="M93.1582 1.82812V28.3051H89.2546V1.82812H93.1582Z" fill="#34A853"/>
<path id="Vector_5" d="M108.37 22.7985L111.476 24.8515C110.474 26.322 108.058 28.8556 103.883 28.8556C98.7054 28.8556 94.8389 24.8882 94.8389 19.8209C94.8389 14.4481 98.7383 10.7861 103.435 10.7861C108.164 10.7861 110.478 14.5173 111.234 16.5337L111.649 17.5602L99.4656 22.5623C100.398 24.3749 101.849 25.2996 103.883 25.2996C105.921 25.2996 107.334 24.3057 108.37 22.7985ZM98.8082 19.548L106.952 16.1956C106.504 15.0673 105.157 14.2811 103.57 14.2811C101.537 14.2811 98.7054 16.0612 98.8082 19.548Z" fill="#EA4335"/>
<path id="Vector_6" d="M15.2065 17.4743V13.6412H28.2361C28.3635 14.3092 28.4292 15.0995 28.4292 15.9549C28.4292 18.8307 27.6362 22.3867 25.0804 24.9204C22.5945 27.4866 19.4182 28.8553 15.2106 28.8553C7.41172 28.8553 0.85376 22.5578 0.85376 14.8266C0.85376 7.09529 7.41172 0.797852 15.2106 0.797852C19.525 0.797852 22.5986 2.47608 24.9078 4.66349L22.1795 7.36821C20.5235 5.82847 18.28 4.6309 15.2065 4.6309C9.51142 4.6309 5.05726 9.18086 5.05726 14.8266C5.05726 20.4723 9.51142 25.0222 15.2065 25.0222C18.9005 25.0222 21.0043 23.5517 22.352 22.2157C23.445 21.1321 24.1641 19.5843 24.4476 17.4702L15.2065 17.4743Z" fill="#4285F4"/>
</g>
<defs>
<clipPath id="clip0_21_98">
<rect width="111.765" height="37.4751" fill="white" transform="translate(0.705811 0.606445)"/>
</clipPath>
</defs>
</svg>
