<svg width="32" height="32" viewBox="0 0 32 32" fill="none" xmlns="http://www.w3.org/2000/svg">
<g id="Icon">
<g id="Group">
<path id="Vector" d="M15.8933 10.0266L16.68 11.8666C16.7333 12.0266 16.88 12.12 17.0267 12.1333L19.0267 12.32C19.4533 12.36 19.6133 12.88 19.3067 13.16L17.8 14.48C17.68 14.5866 17.6267 14.7466 17.6667 14.8933L18.1067 16.8533C18.2 17.2666 17.76 17.5866 17.3867 17.3733L15.6667 16.3466C15.5333 16.2666 15.36 16.2666 15.2267 16.3466L13.5067 17.3733C13.1467 17.5866 12.6933 17.2666 12.7867 16.8533L13.2267 14.8933C13.2667 14.7466 13.2133 14.5866 13.0933 14.48L11.5867 13.16C11.2667 12.88 11.44 12.36 11.8667 12.32L13.8667 12.1333C14.0267 12.12 14.16 12.0266 14.2267 11.88L15.0133 10.04C15.1733 9.63997 15.72 9.63997 15.8933 10.0266Z" stroke="white" stroke-miterlimit="10" stroke-linecap="round" stroke-linejoin="round"/>
<path id="Vector_2" d="M24.5165 13.9263C24.551 8.91891 20.5196 4.83169 15.5123 4.79723C10.5049 4.76277 6.41766 8.79412 6.3832 13.8015C6.34874 18.8089 10.3801 22.8961 15.3875 22.9306C20.3948 22.965 24.4821 18.9337 24.5165 13.9263Z" stroke="white" stroke-miterlimit="10" stroke-linecap="round" stroke-linejoin="round"/>
<g id="Group_2">
<path id="Vector_3" d="M14.2134 22.8398L11.96 28.5065L9.10672 25.2398L4.80005 25.6398L7.65338 18.4932" stroke="white" stroke-miterlimit="10" stroke-linecap="round" stroke-linejoin="round"/>
<path id="Vector_4" d="M16.6667 22.8398L18.9334 28.5065L21.7734 25.2398L26.0934 25.6398L23.2267 18.4932" stroke="white" stroke-miterlimit="10" stroke-linecap="round" stroke-linejoin="round"/>
</g>
</g>
</g>
</svg>
