<svg width="16" height="16" viewBox="0 0 16 16" fill="none" xmlns="http://www.w3.org/2000/svg">
<g id="Location">
<g id="Group">
<path id="Vector" d="M12.2602 6.66039C12.2602 9.42706 9.56023 12.7537 8.46023 13.9937C8.21357 14.2671 7.7869 14.2671 7.54023 13.9937C6.44023 12.7537 3.74023 9.42706 3.74023 6.66039C3.74023 4.30706 5.6469 2.40039 8.00023 2.40039C10.3536 2.40039 12.2602 4.30706 12.2602 6.66039Z" stroke="#FA7436" stroke-width="1.2" stroke-miterlimit="10" stroke-linecap="round" stroke-linejoin="round"/>
<path id="Vector_2" d="M7.99378 8.36744C8.93634 8.36744 9.70044 7.60333 9.70044 6.66077C9.70044 5.7182 8.93634 4.9541 7.99378 4.9541C7.05121 4.9541 6.28711 5.7182 6.28711 6.66077C6.28711 7.60333 7.05121 8.36744 7.99378 8.36744Z" stroke="#FA7436" stroke-width="1.2" stroke-miterlimit="10" stroke-linecap="round" stroke-linejoin="round"/>
</g>
</g>
</svg>
