<svg width="144" height="31" viewBox="0 0 144 31" fill="none" xmlns="http://www.w3.org/2000/svg">
<g id="Microsoft Logo" clip-path="url(#clip0_21_90)">
<path id="Vector" d="M50.8983 17.6007L50.0428 20.0083H49.9715C49.8289 19.4654 49.5675 18.6393 49.1398 17.6479L44.5535 6.20022H40.0623V24.4457H43.0326V13.1869C43.0326 12.4787 43.0326 11.6762 43.0089 10.6849C42.9851 10.1892 42.9376 9.81156 42.9138 9.52831H42.9851C43.1277 10.2364 43.294 10.7557 43.4129 11.0861L48.9259 24.3985H51.0171L56.4826 10.9681C56.6014 10.6613 56.7202 10.0476 56.839 9.52831H56.9103C56.839 10.8737 56.7915 12.0775 56.7677 12.8092V24.3749H59.9282V6.15302H55.6034L50.8983 17.6007ZM62.9224 11.2986H66.0116V24.3749H62.9224V11.2986ZM64.4908 5.77536C63.968 5.77536 63.5402 5.96419 63.1838 6.29464C62.8274 6.62509 62.6372 7.04995 62.6372 7.56922C62.6372 8.0649 62.8274 8.48976 63.1838 8.82021C63.5402 9.15066 63.968 9.31588 64.4908 9.31588C65.0136 9.31588 65.4651 9.12705 65.7977 8.82021C66.1542 8.48976 66.3443 8.0649 66.3443 7.56922C66.3443 7.07355 66.1542 6.64869 65.7977 6.29464C65.4888 5.96419 65.0373 5.77536 64.4908 5.77536ZM76.9664 11.1806C76.3961 11.0625 75.802 10.9917 75.2317 10.9917C73.8297 10.9917 72.5465 11.2986 71.4771 11.9123C70.4078 12.526 69.5523 13.3757 69.0058 14.4378C68.4355 15.5236 68.1503 16.7746 68.1503 18.2144C68.1503 19.4654 68.4355 20.5747 68.982 21.5897C69.5286 22.581 70.289 23.3836 71.3108 23.9264C72.2851 24.4693 73.4257 24.7526 74.7089 24.7526C76.1822 24.7526 77.4417 24.4457 78.4397 23.8792L78.4635 23.8556V21.0232L78.3447 21.1176C77.8932 21.4481 77.3704 21.7313 76.8476 21.8965C76.3011 22.0854 75.802 22.1798 75.3743 22.1798C74.1386 22.1798 73.1643 21.8257 72.4752 21.0468C71.7623 20.2915 71.4059 19.253 71.4059 17.9548C71.4059 16.6094 71.7623 15.5472 72.499 14.7683C73.2356 13.9894 74.2099 13.5881 75.3981 13.5881C76.3961 13.5881 77.4179 13.9186 78.3447 14.5795L78.4635 14.6739V11.6762L78.4397 11.6526C78.0358 11.4874 77.5843 11.2986 76.9664 11.1806ZM87.1608 11.0861C86.4004 11.0861 85.6875 11.3222 85.0697 11.8179C84.5469 12.2427 84.1904 12.8564 83.8815 13.5881H83.8577V11.2986H80.7685V24.3749H83.8577V17.6951C83.8577 16.5622 84.0954 15.618 84.6182 14.9335C85.141 14.2254 85.8063 13.8714 86.6143 13.8714C86.8994 13.8714 87.1846 13.9422 87.541 13.9894C87.8737 14.0838 88.1113 14.1782 88.2777 14.2962L88.3965 14.3906V11.3222L88.3252 11.2986C88.1114 11.157 87.6836 11.0861 87.1608 11.0861ZM95.573 11.0153C93.4105 11.0153 91.6758 11.6526 90.4639 12.9036C89.2282 14.1546 88.6341 15.8777 88.6341 18.0492C88.6341 20.0791 89.252 21.7313 90.4401 22.9351C91.6283 24.1153 93.2442 24.729 95.2641 24.729C97.379 24.729 99.0662 24.0917 100.278 22.8171C101.514 21.5425 102.108 19.843 102.108 17.7423C102.108 15.6652 101.538 14.013 100.373 12.8092C99.2563 11.6054 97.6166 11.0153 95.573 11.0153ZM98.0443 21.0704C97.474 21.8021 96.571 22.1562 95.4542 22.1562C94.3373 22.1562 93.4343 21.8021 92.7927 21.0232C92.1511 20.2915 91.8422 19.2293 91.8422 17.8839C91.8422 16.4913 92.1748 15.4292 92.7927 14.6739C93.4343 13.9186 94.3135 13.5409 95.4304 13.5409C96.5235 13.5409 97.379 13.895 97.9968 14.6267C98.6147 15.3584 98.9473 16.4205 98.9473 17.8131C98.8998 19.2293 98.6384 20.3387 98.0443 21.0704ZM108.999 16.7274C108.025 16.3261 107.407 16.0193 107.122 15.7596C106.884 15.5236 106.765 15.1931 106.765 14.7683C106.765 14.4142 106.908 14.0602 107.264 13.8241C107.621 13.5881 108.025 13.4701 108.619 13.4701C109.142 13.4701 109.688 13.5645 110.211 13.7061C110.734 13.8478 111.209 14.0602 111.589 14.3434L111.708 14.4378V11.5582L111.637 11.5346C111.28 11.393 110.805 11.2514 110.235 11.1334C109.665 11.0389 109.142 10.9917 108.714 10.9917C107.241 10.9917 106.029 11.3458 105.078 12.1247C104.128 12.8564 103.676 13.8478 103.676 15.0043C103.676 15.618 103.771 16.1609 103.985 16.6094C104.199 17.0578 104.508 17.4827 104.936 17.8367C105.363 18.1672 105.981 18.5448 106.837 18.8989C107.55 19.2057 108.096 19.4418 108.429 19.6306C108.762 19.8194 108.975 20.0319 109.142 20.1971C109.261 20.3859 109.332 20.622 109.332 20.9288C109.332 21.8021 108.666 22.227 107.312 22.227C106.789 22.227 106.243 22.1326 105.601 21.9201C104.959 21.7077 104.365 21.4009 103.866 21.0468L103.748 20.9524V23.95L103.819 23.9736C104.27 24.1861 104.817 24.3277 105.482 24.4929C106.148 24.6109 106.742 24.7054 107.264 24.7054C108.857 24.7054 110.164 24.3513 111.09 23.5724C112.041 22.8171 112.54 21.8493 112.54 20.5983C112.54 19.725 112.302 18.9461 111.779 18.356C111.09 17.7895 110.235 17.1994 108.999 16.7274ZM120.691 11.0153C118.528 11.0153 116.793 11.6526 115.582 12.9036C114.37 14.1546 113.752 15.8777 113.752 18.0492C113.752 20.0791 114.37 21.7313 115.558 22.9351C116.746 24.1153 118.362 24.729 120.382 24.729C122.497 24.729 124.184 24.0917 125.396 22.8171C126.631 21.5425 127.226 19.843 127.226 17.7423C127.226 15.6652 126.655 14.013 125.491 12.8092C124.374 11.6054 122.734 11.0153 120.691 11.0153ZM123.138 21.0704C122.568 21.8021 121.665 22.1562 120.548 22.1562C119.407 22.1562 118.528 21.8021 117.887 21.0232C117.245 20.2915 116.936 19.2293 116.936 17.8839C116.936 16.4913 117.269 15.4292 117.887 14.6739C118.528 13.9186 119.407 13.5409 120.524 13.5409C121.594 13.5409 122.473 13.895 123.091 14.6267C123.709 15.3584 124.041 16.4205 124.041 17.8131C124.041 19.2293 123.732 20.3387 123.138 21.0704ZM143.741 13.8241V11.2986H140.628V7.4276L140.533 7.45121L137.586 8.32454L137.515 8.34814V11.2986H132.857V9.64633C132.857 8.89102 133.047 8.30093 133.38 7.92328C133.713 7.54562 134.212 7.35679 134.83 7.35679C135.257 7.35679 135.709 7.45121 136.208 7.66364L136.327 7.73445V5.06726L136.256 5.04365C135.828 4.90203 135.257 4.80762 134.521 4.80762C133.594 4.80762 132.786 5.02005 132.049 5.3741C131.313 5.77536 130.766 6.31824 130.362 7.04995C129.958 7.75805 129.744 8.56057 129.744 9.48111V11.2986H127.582V13.8005H129.744V24.3749H132.857V13.8241H137.515V20.5511C137.515 23.3127 138.822 24.7054 141.436 24.7054C141.864 24.7054 142.315 24.6345 142.743 24.5637C143.194 24.4693 143.527 24.3513 143.717 24.2569L143.741 24.2333V21.7077L143.622 21.8021C143.432 21.9201 143.266 22.0146 142.98 22.0854C142.743 22.1562 142.529 22.1798 142.363 22.1798C141.745 22.1798 141.317 22.0382 141.008 21.6841C140.723 21.3537 140.58 20.8108 140.58 20.0083V13.8241H143.741Z" fill="#737373"/>
<path id="Vector_2" d="M0.235352 0.0634766H14.8022V14.5324H0.235352V0.0634766Z" fill="#F25022"/>
<path id="Vector_3" d="M16.3229 0.0634766H30.8897V14.5324H16.3229V0.0634766Z" fill="#7FBA00"/>
<path id="Vector_4" d="M0.235352 16.043H14.8022V30.5119H0.235352V16.043Z" fill="#00A4EF"/>
<path id="Vector_5" d="M16.3229 16.043H30.8897V30.5119H16.3229V16.043Z" fill="#FFB900"/>
</g>
<defs>
<clipPath id="clip0_21_90">
<rect width="143.529" height="30.4485" fill="white" transform="translate(0.235352 0.0634766)"/>
</clipPath>
</defs>
</svg>
