<svg width="32" height="32" viewBox="0 0 32 32" fill="none" xmlns="http://www.w3.org/2000/svg">
<g id="Icon" clip-path="url(#clip0_21_202)">
<path id="Vector" d="M15.9867 2.66699C8.62675 2.66699 2.66675 8.64033 2.66675 16.0003C2.66675 23.3603 8.62675 29.3337 15.9867 29.3337C23.3601 29.3337 29.3334 23.3603 29.3334 16.0003C29.3334 8.64033 23.3601 2.66699 15.9867 2.66699ZM25.2267 10.667H21.2934C20.8667 9.00033 20.2534 7.40033 19.4534 5.92033C21.9067 6.76033 23.9467 8.46699 25.2267 10.667ZM16.0001 5.38699C17.1067 6.98699 17.9734 8.76033 18.5467 10.667H13.4534C14.0267 8.76033 14.8934 6.98699 16.0001 5.38699ZM5.68008 18.667C5.46675 17.8137 5.33341 16.9203 5.33341 16.0003C5.33341 15.0803 5.46675 14.187 5.68008 13.3337H10.1867C10.0801 14.2137 10.0001 15.0937 10.0001 16.0003C10.0001 16.907 10.0801 17.787 10.1867 18.667H5.68008ZM6.77341 21.3337H10.7067C11.1334 23.0003 11.7467 24.6003 12.5467 26.0803C10.0934 25.2403 8.05341 23.547 6.77341 21.3337ZM10.7067 10.667H6.77341C8.05341 8.45366 10.0934 6.76033 12.5467 5.92033C11.7467 7.40033 11.1334 9.00033 10.7067 10.667ZM16.0001 26.6137C14.8934 25.0137 14.0267 23.2403 13.4534 21.3337H18.5467C17.9734 23.2403 17.1067 25.0137 16.0001 26.6137ZM19.1201 18.667H12.8801C12.7601 17.787 12.6667 16.907 12.6667 16.0003C12.6667 15.0937 12.7601 14.2003 12.8801 13.3337H19.1201C19.2401 14.2003 19.3334 15.0937 19.3334 16.0003C19.3334 16.907 19.2401 17.787 19.1201 18.667ZM19.4534 26.0803C20.2534 24.6003 20.8667 23.0003 21.2934 21.3337H25.2267C23.9467 23.5337 21.9067 25.2403 19.4534 26.0803ZM21.8134 18.667C21.9201 17.787 22.0001 16.907 22.0001 16.0003C22.0001 15.0937 21.9201 14.2137 21.8134 13.3337H26.3201C26.5334 14.187 26.6667 15.0803 26.6667 16.0003C26.6667 16.9203 26.5334 17.8137 26.3201 18.667H21.8134Z" fill="white"/>
</g>
<defs>
<clipPath id="clip0_21_202">
<rect width="32" height="32" fill="white"/>
</clipPath>
</defs>
</svg>
