<svg width="116" height="41" viewBox="0 0 116 41" fill="none" xmlns="http://www.w3.org/2000/svg">
<g id="OLA logo" clip-path="url(#clip0_21_107)">
<g id="Group">
<path id="Vector" fill-rule="evenodd" clip-rule="evenodd" d="M101.972 18.9303L94.6341 31.6184L88.3735 31.6432L101.972 7.76159L115.52 31.6432H109.16L101.972 18.9291V18.9303ZM82.2133 26.1198H89.2252L85.9697 31.6432H76.8305L76.8553 24.9179V7.90841H82.2394L82.2146 26.1198H82.2133ZM62.9828 7.90966C69.6686 7.93455 75.0775 13.2352 75.0527 19.7876C75.0279 26.3164 69.619 31.6184 62.9319 31.6184C56.2709 31.5935 50.862 26.2928 50.862 19.7391C50.8868 13.2103 56.2957 7.90966 62.9828 7.90966ZM62.958 26.0962C66.5383 26.0962 69.4169 23.2729 69.4169 19.7876C69.443 16.3036 66.5383 13.4555 62.9828 13.4555C59.426 13.4306 56.5213 16.2788 56.5213 19.764C56.4965 23.248 59.4012 26.0962 62.9567 26.0962H62.958ZM40.8959 17.9025C40.8215 16.9196 40.5698 15.6193 40.1942 14.3688C39.4213 11.7858 38.0775 9.41116 36.263 7.4219C35.3109 6.39163 34.2349 5.43352 32.6307 4.30495C31.4078 3.69923 30.2054 3.05267 29.0255 2.36635C28.2495 1.92463 27.3222 1.38336 26.0961 0.991409C24.6423 0.646992 23.1563 0.458051 21.6628 0.427746C20.2124 0.377975 18.7582 0.502404 17.356 0.77117C15.8783 1.0163 14.651 1.40825 13.0232 1.80144C9.34124 3.39662 6.4874 5.80183 4.03275 8.99343C-4.53125 20.9946 3.2071 37.8074 17.5061 39.7946C19.8603 40.1144 22.2145 39.9912 24.4423 39.476L26.0205 39.0592C26.07 39.0343 26.1457 39.0094 26.1953 39.0094L27.9991 38.3226C28.0982 38.2728 28.1739 38.2479 28.2743 38.1994L29.0255 37.856C30.467 37.142 31.8201 36.2608 33.0571 35.2305C31.9311 36.2574 30.7065 37.1698 29.4012 37.9543L29.4756 38.004C29.7272 37.9294 29.9516 37.856 30.202 37.8074C30.202 37.8074 30.202 38.1994 30.1525 38.126C29.752 38.4209 30.3781 38.1509 31.1789 37.7328C31.981 37.316 32.7571 36.7996 33.4576 36.211C34.4853 35.3525 35.3866 34.4192 36.6635 32.8987C37.9652 30.6155 39.5942 28.6271 40.3454 25.9519C40.5959 25.2401 40.8203 24.4065 40.9715 23.5466C41.1203 22.6881 41.2219 21.8046 41.2219 20.8963C41.1971 19.988 41.0967 19.0548 40.8959 17.9025ZM22.3645 38.0775C26.7469 37.3894 30.4277 34.9605 33.4328 31.647C34.2597 30.4437 34.9105 29.3388 35.7114 28.1368C36.7131 25.6818 36.6387 23.4981 36.9635 21.9527C37.3652 19.1531 36.413 16.8959 35.6122 14.4907C34.3849 11.6923 32.7571 9.60687 29.902 7.9868C22.6893 3.51981 12.8732 4.77032 8.19078 11.4472C8.16599 11.4472 8.03953 11.6189 7.78911 11.9623C8.11516 10.5886 8.94205 9.77858 9.76771 8.99219C12.2224 6.98017 15.0774 5.38375 18.3329 4.59985C22.0149 4.20665 25.6696 4.59985 28.9499 6.19503C33.8592 8.99219 37.1147 13.387 37.9404 18.5882V23.3998C36.9139 31.2787 30.1525 37.2674 22.3645 38.0775ZM40.3702 20.1597C40.1942 8.62512 28.7503 0.844583 17.6065 2.41612C14.351 3.22491 10.7942 4.84497 8.26516 7.10336C7.03784 7.91215 6.46261 9.41027 5.23528 10.6123C0.325985 17.8043 1.17891 27.0083 7.28826 32.6051C8.07193 33.3827 8.90871 34.1045 9.7925 34.7652C4.68485 31.6955 2.3802 27.0555 1.57934 21.4127C1.57934 19.3994 1.97977 17.4111 2.405 15.399C5.26132 6.58698 14.2505 0.181377 24.0431 1.80144C25.6709 2.19464 27.2986 2.61147 28.9524 3.00467C31.0054 3.81346 33.0336 5.01669 34.6613 6.61311C36.2891 8.20704 37.5164 10.2203 38.7437 12.2074C39.5694 13.8039 39.9711 15.8159 40.3715 17.4111C40.4459 18.3194 40.4459 19.2526 40.3715 20.1609L40.3702 20.1597Z" fill="black"/>
<path id="Vector_2" fill-rule="evenodd" clip-rule="evenodd" d="M30.203 20.3321C30.203 25.2906 26.0462 29.3159 20.9125 29.3159C15.7801 29.3159 11.6221 25.2906 11.6221 20.3321C11.6221 15.3749 15.7789 11.3496 20.9125 11.3496C26.0462 11.3496 30.203 15.3749 30.203 20.3334V20.3321Z" fill="white"/>
<path id="Vector_3" fill-rule="evenodd" clip-rule="evenodd" d="M30.254 18.8109C30.1288 18.124 29.928 17.584 29.7284 16.8238C28.9263 15.1539 27.7498 13.8536 26.1964 12.7487C20.3871 8.89639 12.3983 12.6019 11.5479 19.1804C11.223 21.7823 12.1491 24.2858 13.8017 26.2007C13.3008 25.6843 12.7504 25.1456 12.3747 24.5309L12.3252 24.5807C12.3747 24.7275 12.5756 24.8258 12.6252 24.9726C12.6252 24.9726 12.4243 24.9726 12.4752 24.9477C12.3252 24.7773 12.4504 25.0473 12.6748 25.4143C12.8756 25.7826 13.126 26.1273 13.426 26.4458C13.8525 26.9125 14.3025 27.3293 15.0538 27.8942C16.1571 28.4579 17.1328 29.1945 18.4097 29.5379C18.7606 29.6375 19.161 29.7345 19.5627 29.8079C19.9879 29.8826 20.3883 29.9075 20.8396 29.9075C21.2648 29.9075 21.7161 29.8577 22.2665 29.7581C22.8341 29.691 23.3952 29.5766 23.9438 29.416C25.1694 29.0457 26.2984 28.4084 27.2502 27.5495C27.7262 27.1091 28.4031 26.5441 28.9275 25.8075C29.354 24.9739 29.4036 24.5558 29.6044 24.1875C29.804 23.8192 30.0544 23.4023 30.2305 22.8374C30.374 22.1672 30.4578 21.4856 30.4809 20.8005C30.4561 20.1137 30.4065 19.4505 30.2553 18.8121L30.254 18.8109ZM24.2934 14.2468C25.1451 14.7371 25.2703 14.8105 24.8191 14.492C25.4712 14.6388 25.8716 15.0071 26.272 15.3754C27.2489 16.4803 28.0498 17.7806 28.4502 19.2775C28.6759 20.971 28.4998 22.6645 27.7746 24.1626C26.4729 26.4446 24.3939 27.9664 21.9144 28.3832C21.6392 28.3832 21.3392 28.3832 21.0627 28.4081C21.7644 28.2849 22.2157 27.8432 23.4926 27.3766C24.8687 26.8863 26.422 24.6043 27.1745 23.2779C29.3775 19.6694 26.7729 16.3323 24.2934 14.2468ZM19.5862 28.4317C15.7803 28.0398 12.8496 24.9228 12.4491 21.3144C12.7987 23.3277 14.0013 24.8731 15.629 26.248C16.2055 26.6163 17.0559 27.1315 17.6324 27.4998C18.6093 27.8681 19.1845 28.2613 20.1366 28.433H19.5862V28.4317ZM29.8276 21.8793C29.654 22.6408 29.478 23.3762 29.3019 24.1377C28.9263 25.0709 28.3758 26.0278 27.6246 26.788C26.8733 27.5495 25.9212 28.1381 24.9703 28.703C24.2191 29.0949 23.2669 29.2915 22.4909 29.4869C22.0396 29.5367 21.514 29.3401 21.0627 29.3164C26.6229 29.1684 30.4288 23.9909 29.6032 18.8607C29.2015 17.3638 28.4006 16.0623 27.4237 14.762C27.0233 14.1971 26.246 13.8536 25.6708 13.2887C22.1896 11.105 17.5828 11.5467 14.9534 14.4185C14.5847 14.7959 14.2413 15.1975 13.9256 15.6205C15.329 13.5587 17.5828 12.1116 20.2867 11.6936C21.2388 11.6687 22.2157 11.8416 23.1665 12.0133C27.3741 13.2887 30.5044 17.3638 29.8276 21.8806V21.8793Z" fill="#D7DF23"/>
</g>
</g>
<defs>
<clipPath id="clip0_21_107">
<rect width="115.294" height="39.8173" fill="white" transform="translate(0.353027 0.378906)"/>
</clipPath>
</defs>
</svg>
