<svg width="100" height="39" viewBox="0 0 100 39" fill="none" xmlns="http://www.w3.org/2000/svg">
<g id="OYO Logo" clip-path="url(#clip0_21_119)">
<path id="Vector" d="M81.8397 36.4327C91.2261 36.4327 98.8635 28.7073 98.8635 19.213C98.8635 9.71303 91.2261 1.99316 81.8397 1.99316C72.4515 1.99316 64.816 9.71303 64.816 19.213C64.816 28.7073 72.4515 36.4327 81.8397 36.4327ZM81.8397 13.0727C85.1848 13.0727 87.909 15.8271 87.909 19.2111C87.909 22.5951 85.1829 25.3457 81.8379 25.3457C78.4909 25.3457 75.7705 22.5951 75.7705 19.2092C75.7705 15.8215 78.4928 13.0689 81.8379 13.0689L81.8397 13.0727ZM17.6119 36.4327C26.9983 36.4327 34.6356 28.7073 34.6356 19.213C34.6356 9.71303 26.9983 1.99316 17.6119 1.99316C8.22738 1.99316 0.588135 9.71303 0.588135 19.213C0.588135 28.7073 8.22738 36.4327 17.6119 36.4327ZM17.6119 13.0727C20.9588 13.0727 23.6811 15.8271 23.6811 19.2111C23.6811 22.5951 20.9588 25.3457 17.6119 25.3457C14.2668 25.3457 11.5464 22.5951 11.5464 19.2092C11.5464 15.8215 14.2687 13.0689 17.6119 13.0689V13.0727ZM49.7165 12.6848L44.49 2.21801H32.2527L43.6827 25.1153V35.895H55.7522V25.1153L67.1821 2.21801H54.9392L49.7183 12.6848H49.7165Z" fill="#EE2E24"/>
</g>
<defs>
<clipPath id="clip0_21_119">
<rect width="98.8235" height="37.4751" fill="white" transform="translate(0.588135 0.550781)"/>
</clipPath>
</defs>
</svg>
