<svg width="142" height="34" viewBox="0 0 142 34" fill="none" xmlns="http://www.w3.org/2000/svg">
<g id="Walmart Logo" clip-path="url(#clip0_21_114)">
<path id="Shape" d="M50.6528 12.5553V14.4136H50.7101C51.3844 13.4187 52.5039 12.247 54.9853 12.247C56.9158 12.247 58.3967 13.2213 59.0314 14.6932H59.0887C59.6308 13.949 60.2523 13.3858 60.9487 12.987C61.7729 12.5142 62.6896 12.2428 63.8444 12.2428C66.458 12.2428 68.7719 13.9285 68.7719 18.1796V26.2419H64.7876V18.7429C64.7876 16.5885 64.003 15.3428 62.3723 15.3428C61.1779 15.3428 60.3096 16.091 59.979 17.012C59.8644 17.3286 59.8115 17.7602 59.8115 18.122V26.246H55.8272V18.4386C55.8272 16.6091 55.0735 15.3387 53.4648 15.3387C52.1778 15.3387 51.3712 16.2843 51.0406 17.0942C50.8996 17.4396 50.8555 17.8384 50.8555 18.2125V26.2419H46.8667V12.5553H50.6528ZM89.3373 12.5553V15.1372H89.4474C90.1791 13.1638 91.9156 12.247 93.4406 12.247C93.8241 12.247 94.0356 12.2757 94.3442 12.3333V15.9184C93.9783 15.869 93.639 15.8197 93.163 15.8197C91.4352 15.8197 90.232 16.7571 89.9279 18.2248C89.8618 18.5291 89.8397 18.858 89.8397 19.2362V26.246H85.7496V12.5553H89.3373ZM99.8976 8.02051V12.3292H103.353V15.8156H99.8976V20.9589C99.8976 22.6239 100.352 23.4298 101.7 23.4298C102.335 23.4298 102.802 23.3558 103.208 23.2612L103.261 26.1515C102.718 26.3406 101.564 26.5462 100.391 26.5462C99.0117 26.5462 97.8613 26.098 97.1606 25.4032C96.3584 24.6097 95.9882 23.3105 95.9882 21.4604V8.02051H99.8976ZM44.09 26.2419H40.1233V8.02051H44.09V26.2419ZM33.5121 21.3535C33.5121 21.6043 33.49 21.8675 33.4151 22.0936C33.1066 23.0433 32.0532 23.845 30.7398 23.845C29.6423 23.845 28.7696 23.2653 28.7696 22.036C28.7696 20.1571 30.991 19.635 33.5165 19.6473V21.3535H33.5121ZM37.4744 18.0768C37.4744 14.9728 36.0552 12.247 31.2554 12.247C28.7917 12.247 26.8347 12.8924 25.7681 13.468L26.5482 15.9595C27.5223 15.3839 29.0781 14.9111 30.5502 14.9111C32.9876 14.907 33.3843 16.1979 33.3843 17.0243V17.2217C28.0732 17.2134 24.7191 18.9279 24.7191 22.4225C24.7191 24.5563 26.4248 26.5544 29.3955 26.5544C31.2246 26.5544 32.7496 25.876 33.6663 24.7865H33.7545C33.7545 24.7865 34.3627 27.1505 37.7036 26.246C37.5273 25.2593 37.47 24.2109 37.47 22.9487V18.0768H37.4744ZM4.7929 8.02051C5.2028 9.94872 6.36638 15.5483 6.36638 15.5483C6.85561 17.8507 7.30517 20.264 7.64455 22.1717H7.70625C8.03681 20.1448 8.5569 18.2248 9.11224 15.8485L11.0736 8.02051H15.4149L17.2485 16.0499C17.7289 18.2824 18.1123 20.005 18.4164 22.0812H18.4737C18.8043 19.9845 19.2362 18.1919 19.7078 15.8978L21.4708 8.02051H25.6359L20.4747 26.2419C17.1868 26.9121 15.9262 25.6787 15.4766 23.7217C15.0271 21.7606 14.1456 18.0316 14.1456 18.0316C13.6916 15.9883 13.339 14.5493 13.0922 12.4525H13.0305C12.6779 14.5287 12.3077 15.9841 11.7611 18.0275L9.59706 26.246C6.23856 26.8709 5.07498 25.9459 4.43149 23.4339C3.87615 21.2837 0.411865 8.02462 0.411865 8.02462H4.7929V8.02051ZM79.1384 21.3535C79.1384 21.6043 79.1163 21.8675 79.0414 22.0936C78.7329 23.0433 77.6795 23.845 76.366 23.845C75.2686 23.845 74.3959 23.2653 74.3959 22.036C74.3959 20.1571 76.6173 19.635 79.1428 19.6473V21.3535H79.1384ZM83.1007 18.0768C83.1007 14.9728 81.6815 12.247 76.8817 12.247C74.4179 12.247 72.461 12.8924 71.3944 13.468L72.1745 15.9595C73.1486 15.3839 74.7044 14.9111 76.1765 14.9111C78.6094 14.907 79.0105 16.1979 79.0105 17.0243V17.2217C73.7039 17.2134 70.3498 18.9279 70.3498 22.4225C70.3498 24.5563 72.0599 26.5544 75.0262 26.5544C76.8509 26.5544 78.3803 25.876 79.2926 24.7865H79.3852C79.3852 24.7865 79.9934 27.1505 83.3343 26.246C83.158 25.2593 83.1007 24.2109 83.1007 22.9487V18.0768Z" fill="#041E42"/>
<path id="Shape_2" d="M119.433 19.9668C119.824 20.6322 119.797 21.375 119.38 21.7141L112.166 26.6555C111.415 27.0805 110.29 26.5653 109.653 25.4877C109.012 24.4059 109.126 23.1995 109.877 22.7745L117.864 19.1425C118.365 18.9536 119.042 19.3014 119.433 19.9668ZM128.927 19.9668C129.322 19.3014 129.994 18.9579 130.495 19.1382L138.487 22.7702C139.238 23.1952 139.348 24.4016 138.711 25.4834C138.069 26.561 136.94 27.0719 136.193 26.6512L128.979 21.7098C128.567 21.3749 128.536 20.628 128.927 19.9668ZM124.178 22.6457C124.964 22.6457 125.61 23.0407 125.698 23.5601L126.475 32.1377C126.475 32.9878 125.46 33.6833 124.182 33.6833C122.908 33.6833 121.889 32.9878 121.889 32.1377L122.662 23.5601C122.75 23.0407 123.396 22.6457 124.178 22.6457ZM128.979 12.866L136.193 7.92038C136.94 7.49536 138.069 8.00624 138.711 9.0881C139.348 10.17 139.238 11.3763 138.487 11.8013L130.495 15.4376C129.994 15.6179 129.318 15.2745 128.927 14.609C128.536 13.9436 128.567 13.2009 128.979 12.866ZM117.864 15.4376L109.877 11.8013C109.13 11.3763 109.016 10.17 109.653 9.0881C110.29 8.00624 111.419 7.49536 112.166 7.92038L119.38 12.866C119.797 13.1966 119.824 13.9436 119.433 14.609C119.042 15.2745 118.365 15.6179 117.864 15.4376ZM122.662 11.0157L121.889 2.43809C121.889 1.58806 122.904 0.892578 124.182 0.892578C125.46 0.892578 126.475 1.58806 126.475 2.43809L125.698 11.0157C125.61 11.5309 124.964 11.9301 124.178 11.9301C123.396 11.9301 122.75 11.5309 122.662 11.0157ZM140.661 26.6211V26.4065H140.859C140.925 26.4065 140.969 26.4494 140.969 26.5138C140.969 26.5739 140.925 26.6211 140.859 26.6211H140.661ZM140.499 27.0118C140.499 27.0333 140.516 27.0547 140.543 27.0547H140.626C140.648 27.0547 140.67 27.0333 140.67 27.0118V26.7671H140.806L140.916 27.0247C140.925 27.0418 140.938 27.0547 140.956 27.0547H141.057C141.087 27.0547 141.109 27.0247 141.096 26.9946C141.057 26.9173 141.017 26.8358 140.978 26.7542C141.044 26.7327 141.145 26.6683 141.145 26.5138C141.145 26.3507 141.008 26.2562 140.872 26.2562H140.543C140.521 26.2562 140.499 26.2777 140.499 26.2991V27.0118ZM140.143 26.6555C140.143 26.3077 140.433 26.0244 140.789 26.0244C141.145 26.0244 141.435 26.3034 141.435 26.6555C141.435 27.0032 141.149 27.2865 140.789 27.2865C140.428 27.2865 140.143 27.0032 140.143 26.6555ZM139.989 26.6555C139.989 27.0848 140.345 27.4368 140.789 27.4368C141.228 27.4368 141.588 27.0848 141.588 26.6555C141.588 26.2262 141.228 25.8741 140.789 25.8741C140.345 25.8741 139.989 26.2262 139.989 26.6555Z" fill="#FFC124"/>
</g>
<defs>
<clipPath id="clip0_21_114">
<rect width="141.176" height="32.7907" fill="white" transform="translate(0.411865 0.892578)"/>
</clipPath>
</defs>
</svg>
